<?xml version="1.0" encoding="UTF-8"?>
<svg id="b" data-name="Layer 2" xmlns="http://www.w3.org/2000/svg" viewBox="0 0 71.9 83.2">
  <defs>
    <style>
      .demon {
        fill: #c12b18;
        stroke-width: 0px;
      }
    </style>
  </defs>
  <g id="c" data-name="Layer 1">
    <g>
      <path class="demon" d="M12.2,1.4c5.3-.1,6.8,3.7,7.6,7.8.7,3.6-.8,6.8-2.1,10.1-1.4,3.2-2,6.4,2,8.9,10.9-6.3,22-6.5,32.8.2,3.3-2.2,3.3-5,2.3-8.1-.9-2.5-2-5-2.5-7.6-1-5.7,1.4-9.3,8.6-12.7-4.5,8,.2,12.7,4.2,17.8,5,6.3,6.1,13.2,2.4,20.5,1.4,1.5,3-.6,4.3.8,0,.2-.2.7-.4,1-1.2,1.3-2.2,2.9-1.9,4.5,1.7,8.9-3.7,15.5-7.3,22.6-5.6,11.2-15.4,16.6-27.7,16-12.4-.6-20.9-7.3-26.2-18.5-3.1-6.7-7.1-13-6-20.9.3-2-1.9-2.9-2.4-4.7,1.4-1,2.9,0,4.8-.2C-.1,29.2,3.2,21.6,9.4,14.7c3.6-4,4.4-8.4,3-13.4h-.1ZM43.8,69.9c1,.8.9,2.9,3.3,2,4.7-1.8,10.5-9.1,10.8-15.1-4.2,3.8-10.4,3.6-13.1,9.4-.9-3.2-3.1-2.5-5.2-2.4-4.5.1-9.3.9-13.5-.3-4.3-1.2-8.1-4.4-12.5-6.9,1.9,7.8,6,12.6,12.7,15.5,1.7,0,.7-1.7,1.8-2.1,6,6.1,10.1,6.2,15.8,0ZM44.6,55.2c6.1,0,9-2.8,9.1-8.6-3,2.8-5.9,5.5-9.1,8.6ZM27,55.2c-2.9-3.1-5.1-6.2-8.6-8.4.6,5.8,2.9,8.1,8.6,8.4Z"/>
      <path class="demon" d="M12.4,1.4c-.1,0-.3-.1-.4-.3,0,0,0-.2.1-.3,0,.2,0,.4.1.6,0,0,.1,0,.1,0Z"/>
    </g>
  </g>
</svg>