<?xml version="1.0" encoding="UTF-8"?>
<svg id="b" data-name="Layer 2" xmlns="http://www.w3.org/2000/svg" viewBox="0 0 96.8 94.4">
  <defs>
    <style>
      .dragon {
        fill: #ea2668;
        stroke-width: 0px;
      }
    </style>
  </defs>
  <g id="c" data-name="Layer 1">
    <g>
      <path class="dragon" d="M94.7,32.6c-3-9.7-7.9-18.1-17.3-23.2,5.6,7.8,9.1,16.1,9,26-3.1-.3-4.9-3.8-8.7-2.7,3.7,5.1,6.1,10.4,6.8,16.5.3,3.1,0,6-.9,8.9-1.6,5.2-5.7,8.2-9.8,7.4-4.3-.9-6.3-5-5.2-11.2,3.2.2,3.6,3.5,5.7,5,3.5-8.3,2.2-13.7-5.8-23.6,1.8-.9,3.4,0,5.2.4-.6-7.9-4.9-11.9-15.6-14.9-.4-2,2.2-1.7,2.5-3.4-3.2-2.9-6.7-.4-10.5-.4,2.6-5,7.2-8,10.7-13.5-6.7,1.5-10.8,5.5-15.7,7.6h.1c-.4.3-.8.6-1.3.8-4,3-8,5.9-11.9,9-4.1,3.3-8.1,6.3-8.5,12.6-.4,5.1-3,5.9-6.9,3.6-1.4,1.4-2,3.3-2.7,5.2-1,3.1-1.1,6,1.6,8.2,3,2.3,8.7,3.3,9.6,1.4,2.8-6.3,8.7-2.1,12.2-4.7.2-1.9-3.3-1.5-2.2-3.7.7-1.5,2.2-1.9,3.6-2.4,4.7-1.5,9.5-1.4,14.5-1.1.3-3.5-2.9-4.6-4.3-6.8,4.9-1.6,8,0,9,5.1,1.2,5.9-.6,11.5-2.5,17-1.1,3.1-2.7,6.1-3.8,9.2-2.1,5.7-2.6,11.4,1.7,16.5,4.5,5.2,10.4,6.3,16.8,5.2,6.2-1.1,10.9-4.7,15-9.3,4.5-5.1,7.8-10.8,9.7-17.3.3-1.1,0-2.9,2.1-2.7v-20c-1.8-1.1-1.7-3-2.2-4.7ZM30.2,31.2c-1.6,1.8-3.6,2.6-4.5,1.8-.9-.8-.4-2.9,1.2-4.7,1.6-1.8,3.6-2.6,4.5-1.8s.4,2.9-1.2,4.7ZM59.3,78.3c-3.9-5-2.5-10.5-.5-16.1.5,8.2,3.4,15,11.3,19-4.7,1.9-8.3.2-10.8-3Z"/>
      <path class="dragon" d="M54.1,91.9c-11.6-4.6-17.6-14-5.4-35.5,1.2-2.1,2.8-4.4,2.7-5.5-.9-9.9-8.4-7.1-8.4-7.1.2.9,3.4,7.9-2.6,11.3-3.1,1.8-11.3,1.7-11.3,1.7l3.9,5.9s-9.2-1.4-12.1-2.5c-3.4-1.3-7.3-4.3-9.1-6.5-7.9-10.1-2.5-32.6-2.5-32.6l-.3-.7s0,.1-.1.3c-1.1,2.1-8.2,14.6-8.2,14.6,0,0-1.6,16.7,0,19.7,10.3,18.6,23.7,20.3,24.4,21.3-3,3.7-10.1,3-10.1,3,4.5,7.5,22.2,14.6,22.9,14.9.8.3,17.7,0,17.7,0h1.9s-1.4-1.6-3.4-2.4Z"/>
      <path class="dragon" d="M43,6.4S44.8,0,44,0c-.3,0-10.4,14.3-10.4,14.3v2.3l10.9-7.6c-1.4-.7-1.5-2.6-1.5-2.6Z"/>
    </g>
  </g>
</svg>