<?xml version="1.0" encoding="UTF-8"?>
<svg id="prefix__b" data-name="Layer 2"
    xmlns="http://www.w3.org/2000/svg" viewBox="0 0 56 96">
    <defs>
        <style>.prefix__h,.prefix__i{stroke-width:0}.prefix__h{fill:#e7b07f}.prefix__i{fill:#0b5959}</style>
    </defs>
    <g id="prefix__c" data-name="Layer 1">
        <path d="M9.9 35.8c-.8.6.9 14.3.9 14.3L28 59l17-9s1.5-12.7 0-15.2c-4.5-7.6-25.6-6.6-35.2.9z" fill="#fff9eb" stroke-width="0"/>
        <path d="M30 0c1.1 5.1 4.5 9 6.8 13.4 2.9 5.4 6.1 10.6 9 16 .8 1.4 2.8 2.9 1.2 4.8-1.4 1.7-3.1 0-4.6-.1-.5 0-1-.1-1.5-.2-8.6-2.4-17.3-2.4-25.9 0-2.1-.3-4.4 2.3-6 .3-1.9-2.3.9-4.2 1.9-6 4.5-8.3 9.3-16.4 13.9-24.6.6-1.1 1.9-1.9 1.2-3.5h4z" stroke-width="0" fill="#99073b"/>
        <path d="M43 96h-8c-2.1-1.7-1.9-4.4-2.6-6.7-.7-2.3-1.7-4.8-4.4-4.7-2.7 0-3.7 2.5-4.4 4.8-.7 2.2-1.1 4.4-1.6 6.6H11c0-1.7-2.1-3.6-.6-5 4.3-4.3 2.3-9.1 1.4-13.8 10.8 1 21.6 1 32.4 0-.7 4.6-2.9 9.1 1.2 13.5 2 2.1-.2 4.2-2.4 5.3z" fill="#3c4444" stroke-width="0"/>
        <path class="prefix__i" d="M0 63c3.3-1.7 2.9-5.7 5.3-8.2 1.2-1.3 1.9-2.9 3.8-3.5C7.9 58.5 6.6 65.7 7 73H.1V63zM47 51.4c3.4 2.2 5.2 5.7 6.9 9.2.6 1.2.2 3.1 2.1 3.4v9h-6.9c.3-7.3-.8-14.5-2.1-21.7z"/>
        <path class="prefix__h" d="M0 73h6.9c0 1.5 1.1 2.3 1.8 3.4C6 79.9 3.2 80.9.1 77v-4zM49.1 73.1H56v4c-3.1 3.9-6 2.9-8.6-.6.6-1.1 1.8-1.9 1.8-3.4z"/>
        <path d="M49.1 73.1c0 1.5-1.1 2.3-1.8 3.4-1.1.2-2.1.5-3.2.8-10.8 1-21.6 1-32.4 0-1.1-.2-2.1-.5-3.2-.8-.7-1.1-1.8-1.9-1.8-3.4-.3-7.3 1-14.5 2.1-21.7.6-1.1.7-3 2.6-1.3 4.1 3.7 9.7 4.9 14.2 8.1 1.6 1.2 2.8 1.3 4.4 0 4.4-3.2 10-4.3 14.1-8.1 1.8-1.7 2 .3 2.7 1.2 1.4 7.2 2.4 14.4 2.1 21.7z" fill="#038282" stroke-width="0"/>
        <path class="prefix__h" d="M15.1 33.8c8.6-2.4 17.3-2.4 25.9 0 0 1.5.2 3 .1 4.4-.2 3.7-2.8 5.5-6 3.8-4.8-2.5-9.3-2.5-14.1 0-3.2 1.7-5.8 0-6-3.8 0-1.5 0-3 .1-4.4z"/>
    </g>
</svg>
