<?xml version="1.0" encoding="UTF-8"?>
<svg id="b" data-name="Layer 2" xmlns="http://www.w3.org/2000/svg" viewBox="0 0 61.2 94.8">
  <defs>
    <style>
      .kobold {
        fill: #ad9467;
      }

      .kobold, .ek, .fk, .gk, .h, .i, .j, .k, .l, .m, .n, .o, .p, .q, .r, .s, .t, .u, .v, .w, .x, .y, .z, .aa, .ab, .ac, .ad, .ae {
        stroke-width: 0px;
      }

      .ek {
        fill: #161410;
      }

      .fk {
        fill: #a49064;
      }

      .gk {
        fill: #cab996;
      }

      .h {
        fill: #828181;
      }

      .i {
        fill: #b49f77;
      }

      .j {
        fill: #4f4936;
      }

      .k {
        fill: #704827;
      }

      .l {
        fill: #474338;
      }

      .m {
        fill: #6a0906;
      }

      .n {
        fill: #b0986b;
      }

      .o {
        fill: #2d2a22;
      }

      .p {
        fill: #1d1a12;
      }

      .q {
        fill: #c1b18d;
      }

      .r {
        fill: #af986a;
      }

      .s {
        fill: #414040;
      }

      .t {
        fill: #292417;
      }

      .u {
        fill: #312e21;
      }

      .v {
        fill: #858585;
      }

      .w {
        fill: #81632b;
      }

      .x {
        fill: #353127;
      }

      .y {
        fill: #a36736;
      }

      .z {
        fill: #ccba96;
      }

      .aa {
        fill: #2c281d;
      }

      .ab {
        fill: #2d2218;
      }

      .ac {
        fill: #1c160e;
      }

      .ad {
        fill: #cfbd9a;
      }

      .ae {
        fill: #b29b6d;
      }
    </style>
  </defs>
  <g id="c" data-name="Layer 1">
    <g>
      <path class="p" d="M44.1,92.8c0,.7,0,1.3,0,2H15.2c-.3-3,1.3-4.4,4-4.9,0,1.9.7,2.5,2.7,3,5.8,1.5,7.6-3,10.3-6.2,1-.6,2-1.2,3-1.9h0c.4,1.6.9,3.3,1.3,5-.6.8-1.3,1.7-2.4,3h10Z"/>
      <path class="ad" d="M1.3,27.8c-.1-.3-.2-.6-.2-1,2.2-4.5,8.5-4.7,10.1-9.8.6,0,1.3-.2,1.9-.3,4.3,2.4,8.3,1.3,11.2-2,3.4-3.8,7.3-4.5,11.9-4,1.3,0,2.6.1,3.9.2,1.8,3.4-.3,7.6,2,10.9,1.3,8.4-2.1,14.2-7.9,12.7-6.6-1.7-13.1-2.6-19.5-.7-6.7,2-8.4-5.4-13.5-6.1ZM26.9,23c2.8,2.3,5.6,2.5,8.4,0,2.8-1.9,1.7-4.5,1.3-7.9-3.6,1.4-6.9,2.7-10.2,4.1-2.5,1.6-1.5,2.8.5,3.9Z"/>
      <path class="kobold" d="M1.3,27.8c5,.7,6.7,8.1,13.5,6.1,6.4-1.9,12.9-1,19.5.7,5.9,1.5,9.3-4.3,7.9-12.7.4-.1.7-.2,1.1-.4,6.4.2,12.6-11.7,9.8-19,0-.5.2-1,.2-1.6,3.9-1.5,7.2-2,5.9,4.1.5,1,.3,1.7-.4,2.6-3.7,5.7-8.2,11.2-6.7,18.8.3,3.7-1.2,6.2-4.7,7.5-.6.4-1.1.7-1.7,1.1.5.2,1.1.4,1.6.6,0,0,0,0,0,0-.6,1.9.8,3,1.8,4.2,0,.3-.1.6-.2.9-2-.5-4.7,1.3-5.9-1.8.3-.6.5-1.1.8-1.7l-5.8,1.7c-2.6,1.3-6.3-.4-8.3,2.9-1.5-1.3-3.2-2-5.2-1.9-.6-.9-1.2-1.8-1.8-2.7-7.2-.9-9.9-.6-16.9,1.7-2-3.5-4.5-6.7-4.6-11Z"/>
      <path class="ac" d="M14.3,59.8c-.5-3,.5-5.6,1.8-8.2.5,1,1,2.1,1.6,3.1,0,1.6-1.3,4.5,1.8,3.8,4.3-1,10,3.8,13.1-2.8.9,0,2.1.4,2.3-1.2-1.2-1.2-2.3-1-3.5,0-.7,0-1.4-.1-2.1-.2,0-.5,0-1,0-1.5.6,0,1.2-.2,1.8-.3,2.3.3,4.2,0,4.7-2.8,2.6,2.6.4,6.1,1.6,8.9.1,2,.2,4,.3,5.9-.5,0-.9,0-1.4,0-2.6-.1-4.8.6-6.3,3-.5,0-1,0-1.5,0-1.3-2-3.6-.7-5.2-1.5,0-.5,0-.9,0-1.4,9.2-3.6-2.9-7.6-3-1.1-2.8,0-2.5-4.8-5.9-4Z"/>
      <path class="n" d="M32.1,86.7c-2.7,3.2-4.4,7.7-10.3,6.2-2.1-.5-2.8-1.1-2.7-3,3.1-.4,2.7-4.1,5.7-5-1.8-1.6-3-2.7-4.3-3.8-1.5-.7-3.1-1.4-4.6-2,0,0,.1,0,.1,0-.4-.3-.7-.7-1.1-1,0,0-.2.2-.2.2.2-1.1.3-2.2.5-3.2.4,0,.7-.2,1.1-.3h.4c0,.1.4,0,.4,0,.4,0,.7,0,1.1.1.3,2.2,1.9,2,3.4,1.8,1.3.1,2.5.2,4.2.4-1.2,1.1-2.1,1.8-2.9,2.6-.2.3-.3.5-.5.8.4,0,.8,0,1.2,0,1.5-.5,3.1-1.1,4.6-1.6h0c.2,1.8,1.7,2.5,3,3.2.3,1.6.6,3.1.9,4.7Z"/>
      <path class="v" d="M31,52.6c-.6,0-1.2.2-1.8.3-1.3,0-2.9-.9-3.9.8-2.6.4-5.3-.7-7.7,1.1-.5-1-1-2.1-1.6-3.1-1.5-3.6,1-5.7,3.2-7.9,3,.3,6,.6,9,.9,1.6.1,3.1.3,4.7.4,0,0-.2,0-.1,0-.2.2-.2.4,0,.7-.5,2.3-1.1,4.6-1.6,6.9Z"/>
      <path class="w" d="M53,2.5c2.8,7.3-3.4,19.2-9.8,19,2.9-4.9,6.5-9.5,6-15.7,1.3-1.1,2.5-2.2,3.8-3.3Z"/>
      <path class="u" d="M49.3,5.8c.5,6.2-3.1,10.8-6,15.7-.4.1-.7.2-1.1.4-2.3-3.3-.3-7.5-2-10.9,0-.4,0-.8,0-1.2,5,3.3,6.2-2.3,9.1-4Z"/>
      <path class="q" d="M11.2,17c-1.6,5.1-8,5.3-10.1,9.8-2.3-4.4-.8-7.1,3.7-8.4.5,0,1-.2,1.5-.2l-.6-.6c.6-1.6.7-4.1,3.5-2.1,0,1.4,1.1,1.3,2.1,1.5Z"/>
      <path class="ek" d="M17.1,74.7h-.4s-.4,0-.4,0c-1.2-2.1,1-4.8-1.2-6.7.6-1.4,1.6-2.9-1.1-3.2l-1.7-1c.6-1.3,1.3-2.7,1.9-4,3.4-.8,3.1,3.9,5.9,4,1,.4,2,.7,3,1.1,0,.5,0,.9,0,1.4-1.9.1-3.8.2-6.1.3v8.1Z"/>
      <path class="j" d="M15.1,67.9c2.1,1.9,0,4.6,1.2,6.7-.4,0-.7.2-1.1.3-.3-.1-.6-.2-.9-.2-.1-.3-.2-.6-.2-.9-.7-2-1.3-4-2-6.1,1,0,2,.1,2.9.2Z"/>
      <path class="o" d="M28.2,44.7c-3-.3-6-.6-9-.9-.3-1.9,1.1-2.7,2.4-3.5.3.3.5.6.8.9,1,3.5,4,.7,5.7,1.9,0,.6,0,1.1,0,1.7Z"/>
      <path class="ac" d="M15.1,67.9c-1,0-2-.1-2.9-.2h0c-.1-.5-.3-1-.4-1.5.1-.5.3-1,.4-1.5.6,0,1.2,0,1.9,0,2.6.3,1.7,1.8,1.1,3.2Z"/>
      <path class="ek" d="M12.1,67.8c.7,2,1.3,4,2,6.1-3.1-1-3.7-3.2-2.8-6,0,0,.4,0,.4,0h.4s0,0,0,0Z"/>
      <path class="fk" d="M15.9,79.1c1.5.7,3.1,1.4,4.6,2-3,2.7-3.5-.4-4.6-2Z"/>
      <path class="j" d="M22.8,37.2c.6.9,1.2,1.8,1.8,2.7-.5.3-.9.6-1.4.8-.3-.3-.6-.6-1-1,.2-.9.4-1.7.6-2.6Z"/>
      <path class="fk" d="M14.3,74.7c.3,0,.6,0,.9.2-.2,1.1-.3,2.2-.5,3.2-3.3-.8-.7-2.3-.4-3.5Z"/>
      <path class="x" d="M11.2,17c-.9-.2-2-.1-2.1-1.5,1.3.4,3.1-.7,4,1.2-.6,0-1.3.2-1.9.3Z"/>
      <path class="p" d="M40.2,9.8c0,.4,0,.8,0,1.2-1.3,0-2.6-.1-3.9-.2.9-2,2.5-1.1,3.9-1Z"/>
      <path class="ad" d="M5.7,17.6l.6.6c-.5,0-1,.2-1.5.2.3-.3.6-.5.9-.8Z"/>
      <path class="j" d="M14,64.7c-.6,0-1.2,0-1.9,0,0-.3.1-.7.2-1,.6.3,1.1.6,1.7,1Z"/>
      <path class="o" d="M22.2,39.8c.3.3.6.6,1,1-.2.2-.4.3-.7.4-.3-.3-.5-.6-.8-.9,0-.3.2-.4.5-.5Z"/>
      <path class="fk" d="M14.9,78c.4.3.7.7,1.1,1-1,.4-1.2-.1-1.1-1Z"/>
      <path class="j" d="M12.2,67.8h-.4s-.4,0-.4,0c.1-.5.3-1,.4-1.5.1.5.3,1,.4,1.5Z"/>
      <path class="ae" d="M47.2,54.8c1,3,1.9,6,2.9,9-1,3.1.2,7.2-4,8.9-.5-.2-1-.3-1.6-.5-1.4-4.5-2.8-9-4.2-13.5.1-3.3-2.3-6.5-.2-9.7.7,0,1.4,0,2.1,0,1,.6,2.1,1.2,3.1,1.8,0,.2.1.4,0,.6-.2,1.6-.3,3.1,1.8,3.4Z"/>
      <path class="n" d="M44.1,92.8h-10c1.1-1.4,1.7-2.2,2.4-3,2.6-.9,2.9-3.1,3.5-5.6-1.9.2-3.3.4-4.8.6,0,0,0,0,0,0,.4-3.1-.1-5.5-4-5.3,2.7-2.9,6.5-2.7,9.8-4,0,.4.1.8.2,1.2l-1.1,1.1c-1.4.3-2.8.5-3.6,2.5,1.6-.1,3.3.9,3.7-1.6,5.4-1.2,7,1.8,7.1,6.4-1.1,2.6-2.1,5.1-3.2,7.7Z"/>
      <path class="q" d="M54.1,63.9c.3-3.7,1.7-7.8-3.4-9.7.7-1,1.5-2.1,2.5-3.5,3.8,5,10.7,8.1,7,16-4.1.5-3.7,7.9-9.3,6,0-3.4,5.8-4.6,3.3-8.9Z"/>
      <path class="i" d="M45.3,50.8c-1-.6-2.1-1.2-3.1-1.8,1.3-3.2-1.9-4.5-3-6.7-.2-2.8,2.4-2.5,3.9-3.4,1.2,3.1,3.9,1.3,5.9,1.8,3.2,5,0,7.6-3.7,10Z"/>
      <path class="aa" d="M40.1,77.8c.4-.4.7-.7,1.1-1.1.5-.4,1.1-.9,1.6-1.3.3-.4.5-.7.8-1.1-.6,0-1.1.1-1.7.2-.3.2-.6.4-.8.6-4.3-2.2-4.1-6.5-4.9-10.4.5,0,.9,0,1.4,0,.8,3.9.8,8.4,6.9,7.5.5.2,1,.3,1.6.5.4.4.8.7,1.1,1.1-.4.9-.8,1.9-1.1,2.8h0c0,.5,0,.8.1,1.2,2.7.3,5.4.7,8.1,1-3,1.4-5.7,3-7,6.3,0-4.6-1.7-7.6-7.1-6.4,0-.3,0-.6,0-.9Z"/>
      <path class="l" d="M52.2,26.5c-1.5-7.6,3-13.1,6.7-18.8.6-1,.9-1.7.4-2.6,2.2,6.9-4.1,11.2-5.5,17.1-.3,1.2-.7,3-1.6,4.3Z"/>
      <path class="k" d="M46.1,76.6c.4-.9.8-1.9,1.1-2.8,1.2-.3,2.4-.6,3.6-.9,5.6,1.9,5.2-5.6,9.3-6,0,1.7,0,3.3,0,5-4.5,2.2-8.5,5.6-14,4.9Z"/>
      <path class="y" d="M46.1,76.6c5.5.7,9.6-2.6,14-4.9.3,4.2-3.3,5.2-5.8,7.1-2.7-.3-5.4-.7-8.1-1,0-.4,0-.7-.1-1.1h0Z"/>
      <path class="x" d="M50.8,72.9c-1.2.3-2.4.6-3.6.9-.4-.4-.8-.7-1.1-1.1,4.2-1.6,3-5.8,4-8.9.5.9.9,1.7,1.4,2.5.9-.8,1.7-1.6,2.6-2.4,2.5,4.3-3.3,5.6-3.3,8.9Z"/>
      <path class="i" d="M49.2,39.8c-1-1.2-2.4-2.3-1.8-4.2.5,1.4,3.6,1.8,1.8,4.2Z"/>
      <path class="i" d="M47.2,54.8c-2.1-.3-2-1.8-1.8-3.4.6,1.1,1.2,2.3,1.8,3.4Z"/>
      <path class="i" d="M47.4,35.6c-.5-.2-1.1-.4-1.6-.6.6-.4,1.1-.7,1.7-1.1,0,.6,0,1.1,0,1.7Z"/>
      <path class="r" d="M31.1,79.6c3.9-.2,4.4,2.2,4,5.3-1,.6-2,1.2-3,1.9-.3-1.6-.6-3.1-.9-4.7,0-.8,0-1.5,0-2.3v-.2Z"/>
      <path class="r" d="M35.1,84.8c1.4-.2,2.9-.4,4.8-.6-.6,2.5-.9,4.7-3.5,5.6-.4-1.7-.9-3.3-1.3-5Z"/>
      <path class="ab" d="M26.5,19.2c3.3-1.3,6.5-2.6,10.2-4,.4,3.4,1.5,6-1.3,7.9-.1-.1-.3-.3-.4-.4,0-1.5.9-3.2-.9-4.6-2.2.6-4.5,1.3-6.8,2-.3-.3-.5-.5-.8-.8Z"/>
      <path class="ab" d="M35.4,23c-2.8,2.5-5.6,2.3-8.4,0,.1-.1.3-.3.4-.4h7.6c.1.1.3.3.4.4Z"/>
      <path class="ab" d="M26.9,23c-1.9-1.1-3-2.3-.5-3.9.3.3.5.5.8.8,0,.9,0,1.8,0,2.7-.1.1-.3.3-.4.4Z"/>
      <path class="t" d="M43.2,39c-1.5.8-4.1.5-3.9,3.4-.5,1.2-.9,2.4-1.4,3.6-.2,0-.4,0-.6,0-1.3-1.5-3-1-4.6-.8,0,0,.2,0,.2,0-1.4-4.7,6.3-1.8,5.2-6.2l5.8-1.7c-.3.6-.5,1.1-.8,1.7Z"/>
      <path class="ek" d="M38.2,38.9c1,4.4-6.6,1.5-5.2,6.2-1.6-.1-3.1-.3-4.7-.4,0-.6,0-1.1,0-1.7.6-.3,1.9.3,1.6-1.2,2-3.2,5.7-1.5,8.3-2.9Z"/>
      <path class="q" d="M29.8,41.8c.3,1.5-1,.9-1.6,1.2-1.7-1.2-4.7,1.6-5.7-1.9.3,0,.5-.1.7-.4.5-.3.9-.6,1.4-.8,2-.2,3.7.6,5.2,1.9Z"/>
      <path class="gk" d="M36.2,64.8c.8,3.8.6,8.1,4.9,10.4,0,0-.1.4-.1.4-3.3,1.3-7.2,1.2-9.8,4,0,0,0,.2,0,.2-1.1-.1-1.4-2.4-3-1,0,0,0,0,0,0,.1-.6.3-1.3.4-1.9,0-.1.2-.3.2-.4,0-.2-.3-.5-.4-.7.5-2.7,1-5.3,1.5-8,1.4-2.4,3.7-3.1,6.3-3Z"/>
      <path class="h" d="M17.1,74.7v-8.1c2.3-.1,4.2-.2,6.1-.3,1.7.8,3.9-.5,5.2,1.5-1.6,3.3-1.4,8.8-7.7,7-.8,0-1.7,0-2.5.1-.4,0-.7,0-1.1-.1Z"/>
      <path class="gk" d="M17.6,54.8c2.4-1.8,5.1-.6,7.7-1.1,1.2,1.1,2.5,1.2,3.9.7.7,0,1.4.1,2.1.2.4.4.8.8,1.2,1.2-3.1,6.7-8.7,1.8-13.1,2.8-3,.7-1.7-2.3-1.8-3.8Z"/>
      <path class="gk" d="M44.5,72.2c-6,1-6.1-3.6-6.9-7.5-.1-2-.2-4-.3-5.9,1,0,2,0,3.1,0,1.4,4.5,2.8,9,4.2,13.5Z"/>
      <path class="o" d="M20.7,74.7c6.3,1.8,6.1-3.6,7.7-7,.5,0,1,0,1.5,0-.5,2.7-1,5.3-1.5,8,0,.4.2.7.2,1.1-.1.6-.3,1.3-.4,1.9-1.5.5-3.1,1.1-4.6,1.6l-.7-.9c.8-.7,1.7-1.5,2.9-2.6-1.7-.1-3-.3-4.2-.4-.3-.6-.6-1.3-.9-1.9Z"/>
      <path class="v" d="M23.2,64.9c-1-.4-2-.7-3-1.1.1-6.5,12.2-2.5,3,1.1Z"/>
      <path class="s" d="M37.3,45.9c.2,0,.4,0,.6,0,.1,1,.2,2,.4,3,0,0,0,0,0,0-.9.4-1.7.7-2.6,1.1h0c-.5,2.6-2.3,3.1-4.7,2.7.5-2.3,1.1-4.6,1.6-6.9,1.6,0,3.1,0,4.7.1Z"/>
      <path class="z" d="M35.7,49.8s0,0,0,0c1.6,1.4,1.9-.3,2.6-1.1,0,0,0,0,0,0,.6,0,1.2,0,1.9,0-2.2,3.3.3,6.5.2,9.7-1,0-2,0-3.1,0-1.2-2.9,1-6.3-1.6-8.9Z"/>
      <path class="aa" d="M32.5,55.7c-.4-.4-.8-.8-1.2-1.2,1.2-.9,2.3-1.1,3.5,0-.2,1.6-1.4,1.1-2.3,1.2Z"/>
      <path class="aa" d="M29.2,54.4c-1.4.5-2.8.4-3.9-.7,1-1.7,2.6-.7,3.9-.8,0,.5,0,1,0,1.5Z"/>
      <path class="fk" d="M20.7,74.7c.3.6.6,1.3.9,1.9-1.5.2-3.1.4-3.4-1.8.8,0,1.7,0,2.5-.1Z"/>
      <path class="o" d="M28.2,78.7c1.6-1.4,1.9.9,3,1,0,.8,0,1.5,0,2.3-1.3-.8-2.8-1.5-3-3.3Z"/>
      <path class="o" d="M23.6,80.4c-.4,0-.8,0-1.2,0,.2-.3.3-.5.5-.8.2.3.5.6.7.9Z"/>
      <path class="ek" d="M37.3,45.9c-1.6,0-3.1,0-4.7-.1-.1-.3,0-.5,0-.7,1.6-.2,3.3-.7,4.6.8Z"/>
      <path class="ek" d="M40.1,49c-.6,0-1.2,0-1.9,0-.1-1-.2-2-.4-3,.5-1.2.9-2.4,1.4-3.6,1.1,2.2,4.3,3.4,3,6.7-.7,0-1.4,0-2.1,0Z"/>
      <path class="r" d="M40.1,77.8c0,.3,0,.6,0,.9-.5,2.5-2.1,1.5-3.7,1.6.8-2,2.3-2.2,3.6-2.5Z"/>
      <path class="r" d="M41,75.5s.1-.4.1-.4c.3-.2.6-.4.8-.6.3.3.6.6.9.9-.5.4-1.1.9-1.6,1.3,0-.4-.1-.8-.2-1.2Z"/>
      <path class="r" d="M41.9,74.5c.6,0,1.1-.1,1.7-.2-.3.4-.5.7-.8,1.1-.3-.3-.6-.6-.9-.9Z"/>
      <path class="k" d="M46,76.7c0,.4,0,.7.1,1.1,0-.4,0-.7-.1-1.1Z"/>
      <path class="m" d="M27.4,22.6c0-.9,0-1.8,0-2.7,2.3-.7,4.6-1.3,6.8-2,1.8,1.4.9,3.1.9,4.6-2.5,0-5.1,0-7.6,0Z"/>
      <path class="r" d="M28.6,76.8c0-.4-.2-.7-.2-1.1.1.2.3.4.4.7,0,0-.1.2-.2.4Z"/>
      <path class="aa" d="M38.3,48.9c-.7.8-1,2.5-2.6,1.1.9-.4,1.7-.7,2.6-1.1Z"/>
    </g>
  </g>
</svg>