<svg id="prefix__b" data-name="Layer 2" xmlns="http://www.w3.org/2000/svg" viewBox="0 0 91 96"><defs><style>.prefix__e,.prefix__f,.prefix__g,.prefix__h{stroke-width:0}.prefix__e{fill:#dc476a}.prefix__f{fill:#343e56}.prefix__g{fill:#b797c0}.prefix__h{fill:#fafafa}</style></defs><g id="prefix__c" data-name="Layer 1"><path class="prefix__f" d="M54 96H37c-.5-2.2-2.6-1.7-4-2.3-11.2-4.3-19.4-12.1-22.2-23.6C9.1 63.4 4.9 60.9 0 58V45c3.2-1 5-4.5 8.5-4.6.7-20.7 8.3-31.6 26.9-38.7.8-.3 1.4-.8 1.6-1.7h14c0 1.5.2 2.9.3 4.7 4.8-.6 7.5 3.9 12.1 4 5.7.1 9.4 4.1 10 9.8.2 1.4-.6 3.1 1 4.1 3.6 2.3 2 9 7.9 9.4.3 0 .6 1.8.7 2.7.1 1.8 0 3.6 0 6 3.5 0 5.5 2.4 7.9 4.3v13c-1.9 1-2.8 3.4-5.1 3.8-2.7.4-3.2 2.2-3.7 4.5-3.1 13.9-11.5 23.2-25 27.9-1.2.4-2.7.3-3.2 1.9zm6.9-8.5c9.9-4.3 15-12.3 17.1-22.4 1.5-7.6.5-15.3.6-22.9.1-7.2 0-7.2-7.6-7.2-12.5-4.8-20.9-13.3-23.4-26.8-.5-2.9-2.1-3.4-4.5-3.1-11 1.4-20 5.7-25.7 15.7-6.1 10.7-5.9 43.6 0 54.5C25.3 89.9 46.1 95.4 61 87.6zm12-57.5c-.2-3.3-2.1-4.5-4.2-5.6-1.6-.8-4.4 0-4.6-2.8-.2-2.8 3.2-1.7 4.3-3.5-.6-2.9-2.2-4.5-5.9-4.9 1.5 4.1-3.9 7.5-.2 11.2 2.8 2.8 6.3 4.5 10.6 5.5zm10.7 27c4.4-2.7 4.3-8.7 0-11.1-.7 3.7-.8 7.3 0 11.1zM8.2 57c.6-3.8 1-7.3-.3-11.1-4 3.8-3.9 8.5.3 11.1zm45.5-46.8c.5 4.8.6 5 3.9 7.4.7-3.6-.3-6-3.9-7.4z"/><path class="prefix__g" d="M60.9 87.5c-15 7.8-35.7 2.3-43.6-12.3-5.8-10.8-6-43.7 0-54.5C23 10.7 32 6.3 43 5c2.4-.3 4 .2 4.5 3.1 2.5 13.5 10.9 22 23.4 26.8v8.4c-4.5-4.8-10.4-2.2-15.6-2.5-4.6-.3-6.6 2.8-5.5 7.2 1.1 4.4 4 7.3 8.5 8 5.3.8 9.4-1.3 11.9-6.1 2 12-.5 23-7.1 33.2-.9 1.4-2.2 2.5-2.3 4.3zM31.6 40.8h-4.5c-5.2.2-6.9 2.2-6 7.3.8 4.2 3.5 6.8 7.4 7.9 4.3 1.2 8.2 0 11.2-3.4 2.2-2.5 3.2-5.6 2-8.8-1.2-3.3-4.4-3-7.2-3h-3zM49 80.6c.8.3 1.3.4 1.6.7 4.1 3.5 7.8-.7 8.9-2.5 2.2-3.7-3.4-2.5-4.7-4.6-.8-1.3-2.4-1.2-3.5 0-1.3 1.4-2.4 1.5-3.7 0-1.1-1.2-2.4-1.1-3.5 0-1.3 1.4-2.3.9-3.8 0-3.6-2-5.6 1.8-8.4 2.9-.2 0-.3 1.6 0 1.8 2.3 1.4 6.5 4 6.9 3.5 3.2-3.9 7.8 3.2 10.2-1.8zm-3-12.5c3.7.5 6.8-.1 7-4.7.1-3.5-4.3-9.3-6.9-9.4-2.9-.1-7.5 5.7-7.2 9.5.3 4.6 3.5 5 7.2 4.5z"/><path d="M60.9 87.5c0-1.8 1.4-2.9 2.3-4.3C69.7 73 72.3 62 70.3 50c.2-2.2.4-4.4.7-6.6V35c7.7 0 7.8 0 7.6 7.2-.1 7.6.9 15.4-.6 22.9-2.1 10.1-7.1 18.2-17.1 22.4z" stroke-width="0" fill="#a26bb2"/><path class="prefix__e" d="M72.9 30c-4.3-1-7.8-2.7-10.6-5.5-3.7-3.7 1.7-7.1.2-11.2 3.7.4 5.4 2 5.9 4.9-1.1 1.8-4.4.7-4.3 3.5.2 2.9 3 2 4.6 2.8 2.1 1 3.9 2.3 4.2 5.6z"/><path class="prefix__g" d="M83.6 57c-.8-3.8-.7-7.4 0-11.1 4.4 2.4 4.4 8.5 0 11.1zM8.2 57c-4.2-2.6-4.4-7.3-.3-11.1 1.4 3.8.9 7.3.3 11.1z"/><path class="prefix__e" d="M53.7 10.2c3.6 1.3 4.6 3.7 3.9 7.4-3.3-2.3-3.4-2.5-3.9-7.4z"/><path class="prefix__f" d="M70.9 43.4c-.2 2.2-.4 4.4-.7 6.6-2.5 4.9-6.6 7-11.9 6.1-4.5-.7-7.4-3.6-8.5-8-1.1-4.4.9-7.5 5.5-7.2 5.2.3 11.1-2.3 15.6 2.5zm-16.4 2.7c.7 4 2.9 5.5 6.1 5.4 3.1-.2 5.2-1.8 5.3-5.5-3.8-.3-7.4-.5-11.4.1zM31.6 40.8h3c2.8 0 6-.3 7.2 3 1.2 3.2.2 6.2-2 8.8-3 3.5-6.9 4.6-11.2 3.4-4-1.1-6.7-3.7-7.4-7.9-.9-5 .8-7.1 6-7.3h4.5zm-5.8 5.1c.5 4 2.7 5.6 5.8 5.5 3.1 0 5.3-1.6 5.6-5.3-3.8-.8-7.4-.4-11.4-.2zM49 80.6c-2.3 5.1-7-2-10.2 1.8-.4.4-4.6-2.2-6.9-3.5-.3-.2-.2-1.7 0-1.8 2.8-1.1 4.8-4.9 8.4-2.9 1.5.9 2.5 1.4 3.8 0 1.1-1.2 2.4-1.2 3.5 0 1.3 1.5 2.4 1.4 3.7 0 1.1-1.1 2.7-1.2 3.5 0 1.3 2.1 6.9.8 4.7 4.6-1.1 1.8-4.8 6-8.9 2.5-.3-.3-.9-.4-1.6-.7zM46 68.1c-3.6.5-6.9.1-7.2-4.5-.2-3.8 4.4-9.6 7.2-9.5 2.6.1 7.1 5.9 6.9 9.4-.2 4.6-3.3 5.2-7 4.7z"/><path class="prefix__h" d="M54.5 46.1c4-.6 7.6-.5 11.4-.1 0 3.6-2.2 5.3-5.3 5.5-3.2.2-5.3-1.4-6.1-5.4zM25.8 45.9c4.1-.2 7.6-.6 11.4.2-.4 3.7-2.6 5.3-5.6 5.3-3.1 0-5.3-1.6-5.8-5.5z"/></g></svg>
